<svg xmlns="http://www.w3.org/2000/svg" xml:space="preserve" width="216.442" height="170.016" viewBox="0 0 60.19 47.279"><g transform="translate(-18.134 -11.957)"><path d="M23.816 14.01h49.313c2.122 0 3.83 1.142 3.83 3.944v3.949H19.986v-3.95c0-2.8 1.708-3.944 3.829-3.944z" style="opacity:1;vector-effect:none;fill:#316df0;fill-opacity:1;fill-rule:evenodd;stroke-width:1.14913;stroke-linejoin:round;stop-color:#000;stop-opacity:1"/><rect width="57.008" height="6.079" x="19.987" y="21.718" ry="0" style="font-variation-settings:normal;opacity:1;vector-effect:none;fill:#f2f2f2;fill-opacity:1;fill-rule:evenodd;stroke:none;stroke-width:1.14913;stroke-linecap:butt;stroke-linejoin:round;stroke-miterlimit:4;stroke-dasharray:none;stroke-dashoffset:0;stroke-opacity:1;-inkscape-stroke:none;stop-color:#000;stop-opacity:1"/><path d="M23.577 17.66h15.387M42.927 17.66h10.698M57.324 17.486h10.302M70.841 17.586h3.035" style="font-variation-settings:normal;opacity:1;vector-effect:none;fill:none;fill-opacity:1;stroke:#fff;stroke-width:1.14913;stroke-linecap:butt;stroke-linejoin:round;stroke-miterlimit:4;stroke-dasharray:none;stroke-dashoffset:0;stroke-opacity:1;-inkscape-stroke:none;stop-color:#000;stop-opacity:1"/><path d="M23.534 24.542h15.388M42.884 24.542h10.7M57.281 24.367h10.303M70.799 24.467h3.035" style="font-variation-settings:normal;vector-effect:none;fill:none;fill-opacity:1;stroke:#1a1a1a;stroke-width:1.14913;stroke-linecap:butt;stroke-linejoin:round;stroke-miterlimit:4;stroke-dasharray:none;stroke-dashoffset:0;stroke-opacity:1;-inkscape-stroke:none;stop-color:#000"/><rect width="57.008" height="6.079" x="19.909" y="42.12" ry="0" style="font-variation-settings:normal;vector-effect:none;fill:#f2f2f2;fill-opacity:1;fill-rule:evenodd;stroke:none;stroke-width:1.14913;stroke-linecap:butt;stroke-linejoin:round;stroke-miterlimit:4;stroke-dasharray:none;stroke-dashoffset:0;stroke-opacity:1;-inkscape-stroke:none;stop-color:#000"/><path d="M23.456 44.944h15.388M42.806 44.944h10.699M57.203 44.77h10.302M70.72 44.869h3.036" style="font-variation-settings:normal;vector-effect:none;fill:none;fill-opacity:1;stroke:#1a1a1a;stroke-width:1.14913;stroke-linecap:butt;stroke-linejoin:round;stroke-miterlimit:4;stroke-dasharray:none;stroke-dashoffset:0;stroke-opacity:1;-inkscape-stroke:none;stop-color:#000"/><path d="M23.471 31.755H38.86M42.821 31.755H53.52M57.218 31.58H67.52M70.735 31.68h3.036M23.576 38.065h15.388" style="font-variation-settings:normal;vector-effect:none;fill:none;fill-opacity:1;stroke:#000;stroke-width:1.14913;stroke-linecap:butt;stroke-linejoin:round;stroke-miterlimit:4;stroke-dasharray:none;stroke-dashoffset:0;stroke-opacity:1;-inkscape-stroke:none;stop-color:#000"/><path d="M42.926 38.065h10.699M57.323 37.89h10.302M70.84 37.99h3.036" style="font-variation-settings:normal;vector-effect:none;fill:none;fill-opacity:1;stroke:red;stroke-width:1.14913;stroke-linecap:butt;stroke-linejoin:round;stroke-miterlimit:4;stroke-dasharray:none;stroke-dashoffset:0;stroke-opacity:1;-inkscape-stroke:none;stop-color:#000"/><path d="M23.426 51.67h15.387M42.776 51.67h10.698M57.173 51.496h10.302M70.69 51.596h3.035" style="font-variation-settings:normal;vector-effect:none;fill:none;fill-opacity:1;stroke:#000;stroke-width:1.14913;stroke-linecap:butt;stroke-linejoin:round;stroke-miterlimit:4;stroke-dasharray:none;stroke-dashoffset:0;stroke-opacity:1;-inkscape-stroke:none;stop-color:#000"/></g></svg>